<svg width="318" height="28" viewBox="0 0 318 28" fill="none" xmlns="http://www.w3.org/2000/svg">
<path d="M10.252 17.877H3.73047V13.7637H10.252C11.2598 13.7637 12.0801 13.5996 12.7129 13.2715C13.3457 12.9316 13.8086 12.4629 14.1016 11.8652C14.3945 11.2676 14.541 10.5938 14.541 9.84375C14.541 9.08203 14.3945 8.37305 14.1016 7.7168C13.8086 7.06055 13.3457 6.5332 12.7129 6.13477C12.0801 5.73633 11.2598 5.53711 10.252 5.53711H5.55859V27H0.285156V1.40625H10.252C12.2559 1.40625 13.9727 1.76953 15.4023 2.49609C16.8438 3.21094 17.9453 4.20117 18.707 5.4668C19.4688 6.73242 19.8496 8.17969 19.8496 9.80859C19.8496 11.4609 19.4688 12.8906 18.707 14.0977C17.9453 15.3047 16.8438 16.2363 15.4023 16.8926C13.9727 17.5488 12.2559 17.877 10.252 17.877ZM31.6797 27.3516C30.2031 27.3516 28.8789 27.1172 27.707 26.6484C26.5352 26.168 25.5391 25.5059 24.7188 24.6621C23.9102 23.8184 23.2891 22.8398 22.8555 21.7266C22.4219 20.6016 22.2051 19.4062 22.2051 18.1406V17.4375C22.2051 15.9961 22.4102 14.6777 22.8203 13.4824C23.2305 12.2871 23.8164 11.25 24.5781 10.3711C25.3516 9.49219 26.2891 8.81836 27.3906 8.34961C28.4922 7.86914 29.7344 7.62891 31.1172 7.62891C32.4648 7.62891 33.6602 7.85156 34.7031 8.29688C35.7461 8.74219 36.6191 9.375 37.3223 10.1953C38.0371 11.0156 38.5762 12 38.9395 13.1484C39.3027 14.2852 39.4844 15.5508 39.4844 16.9453V19.0547H24.3672V15.6797H34.5098V15.293C34.5098 14.5898 34.3809 13.9629 34.123 13.4121C33.877 12.8496 33.502 12.4043 32.998 12.0762C32.4941 11.748 31.8496 11.584 31.0645 11.584C30.3965 11.584 29.8223 11.7305 29.3418 12.0234C28.8613 12.3164 28.4688 12.7266 28.1641 13.2539C27.8711 13.7812 27.6484 14.4023 27.4961 15.1172C27.3555 15.8203 27.2852 16.5938 27.2852 17.4375V18.1406C27.2852 18.9023 27.3906 19.6055 27.6016 20.25C27.8242 20.8945 28.1348 21.4512 28.5332 21.9199C28.9434 22.3887 29.4355 22.752 30.0098 23.0098C30.5957 23.2676 31.2578 23.3965 31.9961 23.3965C32.9102 23.3965 33.7598 23.2207 34.5449 22.8691C35.3418 22.5059 36.0273 21.9609 36.6016 21.2344L39.0625 23.9062C38.6641 24.4805 38.1191 25.0312 37.4277 25.5586C36.748 26.0859 35.9277 26.5195 34.9668 26.8594C34.0059 27.1875 32.9102 27.3516 31.6797 27.3516ZM53.5996 22.8516V0H58.6973V27H54.1094L53.5996 22.8516ZM41.5762 17.7188V17.3496C41.5762 15.8965 41.7402 14.5781 42.0684 13.3945C42.3965 12.1992 42.877 11.1738 43.5098 10.3184C44.1426 9.46289 44.9219 8.80078 45.8477 8.33203C46.7734 7.86328 47.8281 7.62891 49.0117 7.62891C50.125 7.62891 51.0977 7.86328 51.9297 8.33203C52.7734 8.80078 53.4883 9.46875 54.0742 10.3359C54.6719 11.1914 55.1523 12.2051 55.5156 13.377C55.8789 14.5371 56.1426 15.8086 56.3066 17.1914V18C56.1426 19.3242 55.8789 20.5547 55.5156 21.6914C55.1523 22.8281 54.6719 23.8242 54.0742 24.6797C53.4883 25.5234 52.7734 26.1797 51.9297 26.6484C51.0859 27.1172 50.1016 27.3516 48.9766 27.3516C47.793 27.3516 46.7383 27.1113 45.8125 26.6309C44.8984 26.1504 44.125 25.4766 43.4922 24.6094C42.8711 23.7422 42.3965 22.7227 42.0684 21.5508C41.7402 20.3789 41.5762 19.1016 41.5762 17.7188ZM46.6387 17.3496V17.7188C46.6387 18.5039 46.6973 19.2363 46.8145 19.916C46.9434 20.5957 47.1484 21.1992 47.4297 21.7266C47.7227 22.2422 48.0977 22.6465 48.5547 22.9395C49.0234 23.2207 49.5918 23.3613 50.2598 23.3613C51.127 23.3613 51.8418 23.168 52.4043 22.7812C52.9668 22.3828 53.3945 21.8379 53.6875 21.1465C53.9922 20.4551 54.168 19.6582 54.2148 18.7559V16.4531C54.1797 15.7148 54.0742 15.0527 53.8984 14.4668C53.7344 13.8691 53.4883 13.3594 53.1602 12.9375C52.8438 12.5156 52.4453 12.1875 51.9648 11.9531C51.4961 11.7188 50.9395 11.6016 50.2949 11.6016C49.6387 11.6016 49.0762 11.7539 48.6074 12.0586C48.1387 12.3516 47.7578 12.7559 47.4648 13.2715C47.1836 13.7871 46.9727 14.3965 46.832 15.0996C46.7031 15.791 46.6387 16.541 46.6387 17.3496ZM67.7148 12.1289V27H62.6523V7.98047H67.416L67.7148 12.1289ZM73.4453 7.85742L73.3574 12.5508C73.1113 12.5156 72.8125 12.4863 72.4609 12.4629C72.1211 12.4277 71.8105 12.4102 71.5293 12.4102C70.8145 12.4102 70.1934 12.5039 69.666 12.6914C69.1504 12.8672 68.7168 13.1309 68.3652 13.4824C68.0254 13.834 67.7676 14.2617 67.5918 14.7656C67.4277 15.2695 67.334 15.8438 67.3105 16.4883L66.291 16.1719C66.291 14.9414 66.4141 13.8105 66.6602 12.7793C66.9062 11.7363 67.2637 10.8281 67.7324 10.0547C68.2129 9.28125 68.7988 8.68359 69.4902 8.26172C70.1816 7.83984 70.9727 7.62891 71.8633 7.62891C72.1445 7.62891 72.4316 7.65234 72.7246 7.69922C73.0176 7.73438 73.2578 7.78711 73.4453 7.85742ZM74.5 17.6836V17.3145C74.5 15.9199 74.6992 14.6367 75.0977 13.4648C75.4961 12.2812 76.0762 11.2559 76.8379 10.3887C77.5996 9.52148 78.5371 8.84766 79.6504 8.36719C80.7637 7.875 82.041 7.62891 83.4824 7.62891C84.9238 7.62891 86.207 7.875 87.332 8.36719C88.457 8.84766 89.4004 9.52148 90.1621 10.3887C90.9355 11.2559 91.5215 12.2812 91.9199 13.4648C92.3184 14.6367 92.5176 15.9199 92.5176 17.3145V17.6836C92.5176 19.0664 92.3184 20.3496 91.9199 21.5332C91.5215 22.7051 90.9355 23.7305 90.1621 24.6094C89.4004 25.4766 88.4629 26.1504 87.3496 26.6309C86.2363 27.1113 84.959 27.3516 83.5176 27.3516C82.0762 27.3516 80.793 27.1113 79.668 26.6309C78.5547 26.1504 77.6113 25.4766 76.8379 24.6094C76.0762 23.7305 75.4961 22.7051 75.0977 21.5332C74.6992 20.3496 74.5 19.0664 74.5 17.6836ZM79.5625 17.3145V17.6836C79.5625 18.4805 79.6328 19.2246 79.7734 19.916C79.9141 20.6074 80.1367 21.2168 80.4414 21.7441C80.7578 22.2598 81.168 22.6641 81.6719 22.957C82.1758 23.25 82.791 23.3965 83.5176 23.3965C84.2207 23.3965 84.8242 23.25 85.3281 22.957C85.832 22.6641 86.2363 22.2598 86.541 21.7441C86.8457 21.2168 87.0684 20.6074 87.209 19.916C87.3613 19.2246 87.4375 18.4805 87.4375 17.6836V17.3145C87.4375 16.541 87.3613 15.8145 87.209 15.1348C87.0684 14.4434 86.8398 13.834 86.5234 13.3066C86.2188 12.7676 85.8145 12.3457 85.3105 12.041C84.8066 11.7363 84.1973 11.584 83.4824 11.584C82.7676 11.584 82.1582 11.7363 81.6543 12.041C81.1621 12.3457 80.7578 12.7676 80.4414 13.3066C80.1367 13.834 79.9141 14.4434 79.7734 15.1348C79.6328 15.8145 79.5625 16.541 79.5625 17.3145ZM114.139 21.6562L120.168 1.40625H126.039L117.127 27H113.26L114.139 21.6562ZM108.584 1.40625L114.596 21.6562L115.51 27H111.607L102.748 1.40625H108.584ZM137.57 22.7109V14.2383C137.57 13.6289 137.471 13.1074 137.271 12.6738C137.072 12.2285 136.762 11.8828 136.34 11.6367C135.93 11.3906 135.396 11.2676 134.74 11.2676C134.178 11.2676 133.691 11.3672 133.281 11.5664C132.871 11.7539 132.555 12.0293 132.332 12.3926C132.109 12.7441 131.998 13.1602 131.998 13.6406H126.936C126.936 12.832 127.123 12.0645 127.498 11.3379C127.873 10.6113 128.418 9.97266 129.133 9.42188C129.848 8.85938 130.697 8.41992 131.682 8.10352C132.678 7.78711 133.791 7.62891 135.021 7.62891C136.498 7.62891 137.811 7.875 138.959 8.36719C140.107 8.85938 141.01 9.59766 141.666 10.582C142.334 11.5664 142.668 12.7969 142.668 14.2734V22.4121C142.668 23.4551 142.732 24.3105 142.861 24.9785C142.99 25.6348 143.178 26.209 143.424 26.7012V27H138.309C138.062 26.4844 137.875 25.8398 137.746 25.0664C137.629 24.2812 137.57 23.4961 137.57 22.7109ZM138.238 15.416L138.273 18.2812H135.443C134.775 18.2812 134.195 18.3574 133.703 18.5098C133.211 18.6621 132.807 18.8789 132.49 19.1602C132.174 19.4297 131.939 19.7461 131.787 20.1094C131.646 20.4727 131.576 20.8711 131.576 21.3047C131.576 21.7383 131.676 22.1309 131.875 22.4824C132.074 22.8223 132.361 23.0918 132.736 23.291C133.111 23.4785 133.551 23.5723 134.055 23.5723C134.816 23.5723 135.479 23.4199 136.041 23.1152C136.604 22.8105 137.037 22.4355 137.342 21.9902C137.658 21.5449 137.822 21.123 137.834 20.7246L139.17 22.8691C138.982 23.3496 138.725 23.8477 138.396 24.3633C138.08 24.8789 137.676 25.3652 137.184 25.8223C136.691 26.2676 136.1 26.6367 135.408 26.9297C134.717 27.2109 133.896 27.3516 132.947 27.3516C131.74 27.3516 130.645 27.1113 129.66 26.6309C128.688 26.1387 127.914 25.4648 127.34 24.6094C126.777 23.7422 126.496 22.7578 126.496 21.6562C126.496 20.6602 126.684 19.7754 127.059 19.002C127.434 18.2285 127.984 17.5781 128.711 17.0508C129.449 16.5117 130.369 16.1074 131.471 15.8379C132.572 15.5566 133.85 15.416 135.303 15.416H138.238ZM156.854 21.7441C156.854 21.3809 156.748 21.0527 156.537 20.7598C156.326 20.4668 155.934 20.1973 155.359 19.9512C154.797 19.6934 153.982 19.459 152.916 19.248C151.955 19.0371 151.059 18.7734 150.227 18.457C149.406 18.1289 148.691 17.7363 148.082 17.2793C147.484 16.8223 147.016 16.2832 146.676 15.6621C146.336 15.0293 146.166 14.3086 146.166 13.5C146.166 12.7031 146.336 11.9531 146.676 11.25C147.027 10.5469 147.525 9.92578 148.17 9.38672C148.826 8.83594 149.623 8.4082 150.561 8.10352C151.51 7.78711 152.576 7.62891 153.76 7.62891C155.412 7.62891 156.83 7.89258 158.014 8.41992C159.209 8.94727 160.123 9.67383 160.756 10.5996C161.4 11.5137 161.723 12.5566 161.723 13.7285H156.66C156.66 13.2363 156.555 12.7969 156.344 12.4102C156.145 12.0117 155.828 11.7012 155.395 11.4785C154.973 11.2441 154.422 11.127 153.742 11.127C153.18 11.127 152.693 11.2266 152.283 11.4258C151.873 11.6133 151.557 11.8711 151.334 12.1992C151.123 12.5156 151.018 12.8672 151.018 13.2539C151.018 13.5469 151.076 13.8105 151.193 14.0449C151.322 14.2676 151.527 14.4727 151.809 14.6602C152.09 14.8477 152.453 15.0234 152.898 15.1875C153.355 15.3398 153.918 15.4805 154.586 15.6094C155.957 15.8906 157.182 16.2598 158.26 16.7168C159.338 17.1621 160.193 17.7715 160.826 18.5449C161.459 19.3066 161.775 20.3086 161.775 21.5508C161.775 22.3945 161.588 23.168 161.213 23.8711C160.838 24.5742 160.299 25.1895 159.596 25.7168C158.893 26.2324 158.049 26.6367 157.064 26.9297C156.092 27.2109 154.996 27.3516 153.777 27.3516C152.008 27.3516 150.508 27.0352 149.277 26.4023C148.059 25.7695 147.133 24.9668 146.5 23.9941C145.879 23.0098 145.568 22.002 145.568 20.9707H150.367C150.391 21.6621 150.566 22.2188 150.895 22.6406C151.234 23.0625 151.662 23.3672 152.178 23.5547C152.705 23.7422 153.273 23.8359 153.883 23.8359C154.539 23.8359 155.084 23.748 155.518 23.5723C155.951 23.3848 156.279 23.1387 156.502 22.834C156.736 22.5176 156.854 22.1543 156.854 21.7441ZM172.92 23.3965C173.541 23.3965 174.092 23.2793 174.572 23.0449C175.053 22.7988 175.428 22.459 175.697 22.0254C175.979 21.5801 176.125 21.0586 176.137 20.4609H180.9C180.889 21.7969 180.531 22.9863 179.828 24.0293C179.125 25.0605 178.182 25.875 176.998 26.4727C175.814 27.0586 174.49 27.3516 173.025 27.3516C171.549 27.3516 170.26 27.1055 169.158 26.6133C168.068 26.1211 167.16 25.4414 166.434 24.5742C165.707 23.6953 165.162 22.6758 164.799 21.5156C164.436 20.3438 164.254 19.0898 164.254 17.7539V17.2441C164.254 15.8965 164.436 14.6426 164.799 13.4824C165.162 12.3105 165.707 11.291 166.434 10.4238C167.16 9.54492 168.068 8.85938 169.158 8.36719C170.248 7.875 171.525 7.62891 172.99 7.62891C174.549 7.62891 175.914 7.92773 177.086 8.52539C178.27 9.12305 179.195 9.97852 179.863 11.0918C180.543 12.1934 180.889 13.5 180.9 15.0117H176.137C176.125 14.3789 175.99 13.8047 175.732 13.2891C175.486 12.7734 175.123 12.3633 174.643 12.0586C174.174 11.7422 173.594 11.584 172.902 11.584C172.164 11.584 171.561 11.7422 171.092 12.0586C170.623 12.3633 170.26 12.7852 170.002 13.3242C169.744 13.8516 169.562 14.4551 169.457 15.1348C169.363 15.8027 169.316 16.5059 169.316 17.2441V17.7539C169.316 18.4922 169.363 19.2012 169.457 19.8809C169.551 20.5605 169.727 21.1641 169.984 21.6914C170.254 22.2188 170.623 22.6348 171.092 22.9395C171.561 23.2441 172.17 23.3965 172.92 23.3965ZM183.027 17.6836V17.3145C183.027 15.9199 183.227 14.6367 183.625 13.4648C184.023 12.2812 184.604 11.2559 185.365 10.3887C186.127 9.52148 187.064 8.84766 188.178 8.36719C189.291 7.875 190.568 7.62891 192.01 7.62891C193.451 7.62891 194.734 7.875 195.859 8.36719C196.984 8.84766 197.928 9.52148 198.689 10.3887C199.463 11.2559 200.049 12.2812 200.447 13.4648C200.846 14.6367 201.045 15.9199 201.045 17.3145V17.6836C201.045 19.0664 200.846 20.3496 200.447 21.5332C200.049 22.7051 199.463 23.7305 198.689 24.6094C197.928 25.4766 196.99 26.1504 195.877 26.6309C194.764 27.1113 193.486 27.3516 192.045 27.3516C190.604 27.3516 189.32 27.1113 188.195 26.6309C187.082 26.1504 186.139 25.4766 185.365 24.6094C184.604 23.7305 184.023 22.7051 183.625 21.5332C183.227 20.3496 183.027 19.0664 183.027 17.6836ZM188.09 17.3145V17.6836C188.09 18.4805 188.16 19.2246 188.301 19.916C188.441 20.6074 188.664 21.2168 188.969 21.7441C189.285 22.2598 189.695 22.6641 190.199 22.957C190.703 23.25 191.318 23.3965 192.045 23.3965C192.748 23.3965 193.352 23.25 193.855 22.957C194.359 22.6641 194.764 22.2598 195.068 21.7441C195.373 21.2168 195.596 20.6074 195.736 19.916C195.889 19.2246 195.965 18.4805 195.965 17.6836V17.3145C195.965 16.541 195.889 15.8145 195.736 15.1348C195.596 14.4434 195.367 13.834 195.051 13.3066C194.746 12.7676 194.342 12.3457 193.838 12.041C193.334 11.7363 192.725 11.584 192.01 11.584C191.295 11.584 190.686 11.7363 190.182 12.041C189.689 12.3457 189.285 12.7676 188.969 13.3066C188.664 13.834 188.441 14.4434 188.301 15.1348C188.16 15.8145 188.09 16.541 188.09 17.3145ZM209.113 12.041V27H204.051V7.98047H208.797L209.113 12.041ZM208.375 16.8223H207.004C207.004 15.416 207.186 14.1504 207.549 13.0254C207.912 11.8887 208.422 10.9219 209.078 10.125C209.734 9.31641 210.514 8.70117 211.416 8.2793C212.33 7.8457 213.35 7.62891 214.475 7.62891C215.365 7.62891 216.18 7.75781 216.918 8.01562C217.656 8.27344 218.289 8.68359 218.816 9.24609C219.355 9.80859 219.766 10.5527 220.047 11.4785C220.34 12.4043 220.486 13.5352 220.486 14.8711V27H215.389V14.8535C215.389 14.0098 215.271 13.3535 215.037 12.8848C214.803 12.416 214.457 12.0879 214 11.9004C213.555 11.7012 213.004 11.6016 212.348 11.6016C211.668 11.6016 211.076 11.7363 210.572 12.0059C210.08 12.2754 209.67 12.6504 209.342 13.1309C209.025 13.5996 208.785 14.1504 208.621 14.7832C208.457 15.416 208.375 16.0957 208.375 16.8223ZM232.193 23.3965C232.814 23.3965 233.365 23.2793 233.846 23.0449C234.326 22.7988 234.701 22.459 234.971 22.0254C235.252 21.5801 235.398 21.0586 235.41 20.4609H240.174C240.162 21.7969 239.805 22.9863 239.102 24.0293C238.398 25.0605 237.455 25.875 236.271 26.4727C235.088 27.0586 233.764 27.3516 232.299 27.3516C230.822 27.3516 229.533 27.1055 228.432 26.6133C227.342 26.1211 226.434 25.4414 225.707 24.5742C224.98 23.6953 224.436 22.6758 224.072 21.5156C223.709 20.3438 223.527 19.0898 223.527 17.7539V17.2441C223.527 15.8965 223.709 14.6426 224.072 13.4824C224.436 12.3105 224.98 11.291 225.707 10.4238C226.434 9.54492 227.342 8.85938 228.432 8.36719C229.521 7.875 230.799 7.62891 232.264 7.62891C233.822 7.62891 235.188 7.92773 236.359 8.52539C237.543 9.12305 238.469 9.97852 239.137 11.0918C239.816 12.1934 240.162 13.5 240.174 15.0117H235.41C235.398 14.3789 235.264 13.8047 235.006 13.2891C234.76 12.7734 234.396 12.3633 233.916 12.0586C233.447 11.7422 232.867 11.584 232.176 11.584C231.438 11.584 230.834 11.7422 230.365 12.0586C229.896 12.3633 229.533 12.7852 229.275 13.3242C229.018 13.8516 228.836 14.4551 228.73 15.1348C228.637 15.8027 228.59 16.5059 228.59 17.2441V17.7539C228.59 18.4922 228.637 19.2012 228.73 19.8809C228.824 20.5605 229 21.1641 229.258 21.6914C229.527 22.2188 229.896 22.6348 230.365 22.9395C230.834 23.2441 231.443 23.3965 232.193 23.3965ZM251.863 27.3516C250.387 27.3516 249.062 27.1172 247.891 26.6484C246.719 26.168 245.723 25.5059 244.902 24.6621C244.094 23.8184 243.473 22.8398 243.039 21.7266C242.605 20.6016 242.389 19.4062 242.389 18.1406V17.4375C242.389 15.9961 242.594 14.6777 243.004 13.4824C243.414 12.2871 244 11.25 244.762 10.3711C245.535 9.49219 246.473 8.81836 247.574 8.34961C248.676 7.86914 249.918 7.62891 251.301 7.62891C252.648 7.62891 253.844 7.85156 254.887 8.29688C255.93 8.74219 256.803 9.375 257.506 10.1953C258.221 11.0156 258.76 12 259.123 13.1484C259.486 14.2852 259.668 15.5508 259.668 16.9453V19.0547H244.551V15.6797H254.693V15.293C254.693 14.5898 254.564 13.9629 254.307 13.4121C254.061 12.8496 253.686 12.4043 253.182 12.0762C252.678 11.748 252.033 11.584 251.248 11.584C250.58 11.584 250.006 11.7305 249.525 12.0234C249.045 12.3164 248.652 12.7266 248.348 13.2539C248.055 13.7812 247.832 14.4023 247.68 15.1172C247.539 15.8203 247.469 16.5938 247.469 17.4375V18.1406C247.469 18.9023 247.574 19.6055 247.785 20.25C248.008 20.8945 248.318 21.4512 248.717 21.9199C249.127 22.3887 249.619 22.752 250.193 23.0098C250.779 23.2676 251.441 23.3965 252.18 23.3965C253.094 23.3965 253.943 23.2207 254.729 22.8691C255.525 22.5059 256.211 21.9609 256.785 21.2344L259.246 23.9062C258.848 24.4805 258.303 25.0312 257.611 25.5586C256.932 26.0859 256.111 26.5195 255.15 26.8594C254.189 27.1875 253.094 27.3516 251.863 27.3516ZM267.895 0V27H262.814V0H267.895ZM277.422 0V27H272.342V0H277.422ZM280.797 17.6836V17.3145C280.797 15.9199 280.996 14.6367 281.395 13.4648C281.793 12.2812 282.373 11.2559 283.135 10.3887C283.896 9.52148 284.834 8.84766 285.947 8.36719C287.061 7.875 288.338 7.62891 289.779 7.62891C291.221 7.62891 292.504 7.875 293.629 8.36719C294.754 8.84766 295.697 9.52148 296.459 10.3887C297.232 11.2559 297.818 12.2812 298.217 13.4648C298.615 14.6367 298.814 15.9199 298.814 17.3145V17.6836C298.814 19.0664 298.615 20.3496 298.217 21.5332C297.818 22.7051 297.232 23.7305 296.459 24.6094C295.697 25.4766 294.76 26.1504 293.646 26.6309C292.533 27.1113 291.256 27.3516 289.814 27.3516C288.373 27.3516 287.09 27.1113 285.965 26.6309C284.852 26.1504 283.908 25.4766 283.135 24.6094C282.373 23.7305 281.793 22.7051 281.395 21.5332C280.996 20.3496 280.797 19.0664 280.797 17.6836ZM285.859 17.3145V17.6836C285.859 18.4805 285.93 19.2246 286.07 19.916C286.211 20.6074 286.434 21.2168 286.738 21.7441C287.055 22.2598 287.465 22.6641 287.969 22.957C288.473 23.25 289.088 23.3965 289.814 23.3965C290.518 23.3965 291.121 23.25 291.625 22.957C292.129 22.6641 292.533 22.2598 292.838 21.7441C293.143 21.2168 293.365 20.6074 293.506 19.916C293.658 19.2246 293.734 18.4805 293.734 17.6836V17.3145C293.734 16.541 293.658 15.8145 293.506 15.1348C293.365 14.4434 293.137 13.834 292.82 13.3066C292.516 12.7676 292.111 12.3457 291.607 12.041C291.104 11.7363 290.494 11.584 289.779 11.584C289.064 11.584 288.455 11.7363 287.951 12.041C287.459 12.3457 287.055 12.7676 286.738 13.3066C286.434 13.834 286.211 14.4434 286.07 15.1348C285.93 15.8145 285.859 16.541 285.859 17.3145ZM312.209 21.7441C312.209 21.3809 312.104 21.0527 311.893 20.7598C311.682 20.4668 311.289 20.1973 310.715 19.9512C310.152 19.6934 309.338 19.459 308.271 19.248C307.311 19.0371 306.414 18.7734 305.582 18.457C304.762 18.1289 304.047 17.7363 303.438 17.2793C302.84 16.8223 302.371 16.2832 302.031 15.6621C301.691 15.0293 301.521 14.3086 301.521 13.5C301.521 12.7031 301.691 11.9531 302.031 11.25C302.383 10.5469 302.881 9.92578 303.525 9.38672C304.182 8.83594 304.979 8.4082 305.916 8.10352C306.865 7.78711 307.932 7.62891 309.115 7.62891C310.768 7.62891 312.186 7.89258 313.369 8.41992C314.564 8.94727 315.479 9.67383 316.111 10.5996C316.756 11.5137 317.078 12.5566 317.078 13.7285H312.016C312.016 13.2363 311.91 12.7969 311.699 12.4102C311.5 12.0117 311.184 11.7012 310.75 11.4785C310.328 11.2441 309.777 11.127 309.098 11.127C308.535 11.127 308.049 11.2266 307.639 11.4258C307.229 11.6133 306.912 11.8711 306.689 12.1992C306.479 12.5156 306.373 12.8672 306.373 13.2539C306.373 13.5469 306.432 13.8105 306.549 14.0449C306.678 14.2676 306.883 14.4727 307.164 14.6602C307.445 14.8477 307.809 15.0234 308.254 15.1875C308.711 15.3398 309.273 15.4805 309.941 15.6094C311.312 15.8906 312.537 16.2598 313.615 16.7168C314.693 17.1621 315.549 17.7715 316.182 18.5449C316.814 19.3066 317.131 20.3086 317.131 21.5508C317.131 22.3945 316.943 23.168 316.568 23.8711C316.193 24.5742 315.654 25.1895 314.951 25.7168C314.248 26.2324 313.404 26.6367 312.42 26.9297C311.447 27.2109 310.352 27.3516 309.133 27.3516C307.363 27.3516 305.863 27.0352 304.633 26.4023C303.414 25.7695 302.488 24.9668 301.855 23.9941C301.234 23.0098 300.924 22.002 300.924 20.9707H305.723C305.746 21.6621 305.922 22.2188 306.25 22.6406C306.59 23.0625 307.018 23.3672 307.533 23.5547C308.061 23.7422 308.629 23.8359 309.238 23.8359C309.895 23.8359 310.439 23.748 310.873 23.5723C311.307 23.3848 311.635 23.1387 311.857 22.834C312.092 22.5176 312.209 22.1543 312.209 21.7441Z" fill="#2D2C2C"/>
</svg>
